<?xml version="1.0" encoding="UTF-8"?>
<!-- Generator: Adobe Illustrator 19.0.1, SVG Export Plug-In . SVG Version: 6.00 Build 0)  -->
<svg version="1.1" id="svg-leaf" xmlns="http://www.w3.org/2000/svg" xmlns:xlink="http://www.w3.org/1999/xlink" x="0px" y="0px" viewBox="0 0 16.9 16.9" style="enable-background:new 0 0 16.9 16.9;" xml:space="preserve">
<style type="text/css">
	.st0{clip-path:url(#SVGID_2_);fill:#77BC1F;}
</style>
<g>
	<defs>
		<rect id="SVGID_1_" y="0" width="16.9" height="16.9"/>
	</defs>
	<clipPath id="SVGID_2_">
		<use xlink:href="#SVGID_1_" style="overflow:visible;"/>
	</clipPath>
	<path class="st0" d="M8.4,0C3.8,0,0,3.8,0,8.4c0,3.1,1.7,5.8,4.2,7.3c0.8-5.4,6.5-10,6.5-10s-5.2,1.7-7.1,7   c-0.4-0.9-1.5-3.3,0.5-5.8c2.8-3.4,10.2-4.3,9.6-3.7c-2.5,2.8-1,6.1-2.6,8.5c-1.2,1.8-3.7,2-5.3,2c0,0-0.4,1.2-0.6,2.6   c1,0.4,2,0.6,3.1,0.6c4.7,0,8.4-3.8,8.4-8.4C16.9,3.8,13.1,0,8.4,0"/>
</g>
</svg>